<?xml version="1.0" encoding="utf-8"?>
<!-- Svg Vector Icons : http://www.onlinewebfonts.com/icon -->
<!DOCTYPE svg PUBLIC "-//W3C//DTD SVG 1.1//EN" "http://www.w3.org/Graphics/SVG/1.1/DTD/svg11.dtd">
<svg version="1.1" xmlns="http://www.w3.org/2000/svg" xmlns:xlink="http://www.w3.org/1999/xlink" x="0px" y="0px"
    viewBox="0 0 256 256" enable-background="new 0 0 256 256" xml:space="preserve">
    <metadata> Svg Vector Icons : http://www.onlinewebfonts.com/icon </metadata>
    <g>
        <g>
            <g>
                <path fill="ffffff"
                    d="M131.2,19.6c-2.3,4.8-3.6,7.1-4.1,7.1c-0.4,0-3.8,0.5-7.6,1l-6.9,1l5.6,5.3l5.6,5.4l-1.3,7.5c-0.7,4.2-1.2,7.5-1,7.5c0.1,0,3.2-1.6,6.7-3.5l6.4-3.5l6.5,3.5c3.6,1.9,6.6,3.4,6.7,3.3c0.1-0.1-0.4-3.5-1-7.5l-1.2-7.3l5.4-5.4l5.4-5.4l-3.4-0.5c-1.8-0.3-5.2-0.7-7.4-1.1l-4.1-0.6l-3.4-7l-3.4-7L131.2,19.6z" />
                <path fill="ffffff"
                    d="M220.5,42.3l-3.3,6.8l-7.5,1.1l-7.4,1.1l5.4,5.4l5.4,5.4l-1.2,7.3c-0.7,4-1.2,7.3-1,7.5c0.1,0.1,3.1-1.3,6.6-3.2l6.4-3.5l5.3,2.8c2.9,1.5,6,3.2,6.8,3.7l1.5,0.9l-0.2-1.1c-0.1-0.6-0.8-4.1-1.4-7.8l-1.2-6.7l5.6-5.4l5.6-5.4l-7.7-1.1l-7.7-1.1l-3.3-6.8c-1.8-3.8-3.4-6.9-3.4-6.9C223.8,35.4,222.3,38.5,220.5,42.3z" />
                <path fill="ffffff"
                    d="M175.4,58.6c-1,0.2-2.4,0.8-3.2,1.3c-0.8,0.5-11.2,10.9-23.2,23l-21.8,22.1l9.4,9.7c5.2,5.3,9.6,9.5,9.8,9.4c1.2-0.4,43.7-44.3,44.5-45.9c1.2-2.3,1.7-7.7,0.8-10.5C190,61.1,182.3,56.8,175.4,58.6z M181.7,64.4c1.8,1.8,2.3,3.2,1.7,5.4c-0.3,1-6.2,7.3-20.6,21.9c-18.7,18.9-20.4,20.5-21.8,20.4c-4.4,0-7.5-4.8-5.6-8.5c0.9-1.6,39.2-40.2,40.5-40.8C177.8,62,179.7,62.5,181.7,64.4z" />
                <path fill="ffffff"
                    d="M198.2,105.4l-3.4,6.9l-3.5,0.5c-1.9,0.3-5.3,0.8-7.5,1.1l-4.1,0.6l5.5,5.4l5.5,5.4l-1.3,7.5c-0.7,4.2-1.2,7.5-1.1,7.5c0.1,0,3.1-1.6,6.7-3.5l6.5-3.5l6.5,3.5c3.6,1.9,6.6,3.4,6.7,3.3c0.1-0.1-0.4-3.5-1.1-7.4l-1.2-7.3l5.5-5.5l5.4-5.4l-2-0.3c-1.1-0.1-4.5-0.6-7.5-1.1l-5.5-0.8l-3.4-6.9l-3.4-6.9L198.2,105.4z" />
                <path fill="ffffff"
                    d="M80.9,152.1c-23,23.3-47.9,48.6-55.4,56.1C10.3,223.7,10,224.1,10,230c0,2.9,0.2,4,1.3,6.1c2.4,4.9,6.6,7.4,12.2,7.4c2.8,0,3.7-0.2,5.9-1.3c2-1.1,13.3-12.2,57.2-56.9c30.1-30.6,54.7-55.8,54.7-55.9c0.1-0.2-4.1-4.7-9.2-10l-9.3-9.7L80.9,152.1z" />
            </g>
        </g>
    </g>
</svg>